<svg width="26" height="26" viewBox="0 0 26 26" fill="none" xmlns="http://www.w3.org/2000/svg">
<path d="M9.44971 12.654C9.44971 12.8935 9.25838 13.0852 9.01921 13.0852H7.40352C7.16435 13.0852 6.97302 12.8935 6.97302 12.654V11.0356C6.97302 10.7961 7.16435 10.6044 7.40352 10.6044H9.01921C9.25838 10.6044 9.44971 10.7961 9.44971 11.0356V12.654ZM12.8246 11.041C12.8246 10.8014 12.6333 10.6097 12.3941 10.6097H10.7784C10.5392 10.6097 10.3479 10.8014 10.3479 11.041V12.6593C10.3479 12.8989 10.5392 13.0905 10.7784 13.0905H12.3941C12.6333 13.0905 12.8246 12.8989 12.8246 12.6593V11.041ZM16.1995 11.041C16.1995 10.8014 16.0082 10.6097 15.769 10.6097H14.1533C13.9141 10.6097 13.7228 10.8014 13.7228 11.041V12.6593C13.7228 12.8989 13.9141 13.0905 14.1533 13.0905H15.769C16.0082 13.0905 16.1995 12.8989 16.1995 12.6593V11.041ZM9.44971 14.3309C9.44971 14.0913 9.25838 13.8997 9.01921 13.8997H7.40352C7.16435 13.8997 6.97302 14.0913 6.97302 14.3309V15.9492C6.97302 16.1888 7.16435 16.3804 7.40352 16.3804H9.01921C9.25838 16.3804 9.44971 16.1888 9.44971 15.9492V14.3309ZM12.8246 14.3309C12.8246 14.0913 12.6333 13.8997 12.3941 13.8997H10.7784C10.5392 13.8997 10.3479 14.0913 10.3479 14.3309V15.9492C10.3479 16.1888 10.5392 16.3804 10.7784 16.3804H12.3941C12.6333 16.3804 12.8246 16.1888 12.8246 15.9492V14.3309ZM15.769 13.8997H14.1533C13.9141 13.8997 13.7228 14.0913 13.7228 14.3309V15.9492C13.7228 16.1888 13.9141 16.3804 14.1533 16.3804H15.769C16.0082 16.3804 16.1995 16.1888 16.1995 15.9492V14.3309C16.1995 14.0913 16.0082 13.8997 15.769 13.8997ZM5.639 17.1896H4.02862C3.78945 17.1896 3.59812 17.3812 3.59812 17.6208V19.2391C3.59812 19.4787 3.78945 19.6704 4.02862 19.6704H5.64432C5.88348 19.6704 6.07482 19.4787 6.07482 19.2391V17.6208C6.07482 17.3812 5.87817 17.1896 5.639 17.1896ZM6.07482 14.3309C6.07482 14.0913 5.88348 13.8997 5.64432 13.8997H4.02862C3.78945 13.8997 3.59812 14.0913 3.59812 14.3309V15.9492C3.59812 16.1888 3.78945 16.3804 4.02862 16.3804H5.64432C5.88348 16.3804 6.07482 16.1888 6.07482 15.9492V14.3309ZM12.3941 17.1896H10.7784C10.5392 17.1896 10.3479 17.3812 10.3479 17.6208V19.2391C10.3479 19.4787 10.5392 19.6704 10.7784 19.6704H12.3941C12.6333 19.6704 12.8246 19.4787 12.8246 19.2391V17.6208C12.8246 17.3812 12.6333 17.1896 12.3941 17.1896ZM9.01921 17.1896H7.40352C7.16435 17.1896 6.97302 17.3812 6.97302 17.6208V19.2391C6.97302 19.4787 7.16435 19.6704 7.40352 19.6704H9.01921C9.25838 19.6704 9.44971 19.4787 9.44971 19.2391V17.6208C9.44971 17.3812 9.25838 17.1896 9.01921 17.1896ZM19.1439 13.0905C19.3831 13.0905 19.5744 12.8989 19.5744 12.6593V11.041C19.5744 10.8014 19.3831 10.6097 19.1439 10.6097H17.5282C17.289 10.6097 17.0977 10.8014 17.0977 11.041V12.6593C17.0977 12.8989 17.289 13.0905 17.5282 13.0905H19.1439ZM2.53516 23.1839H14.7964C14.5998 22.5663 14.4881 21.9062 14.4828 21.2248H2.53516C2.21627 21.2248 1.96116 20.964 1.96116 20.6499V9.0819H21.1848V14.464C21.8651 14.4693 22.5241 14.5704 23.1406 14.7674V5.03071C23.1406 3.63063 22.0033 2.4914 20.6055 2.4914H17.7674V0.92629C17.7674 0.415233 17.3528 0 16.8426 0H15.4023C14.8921 0 14.4775 0.415233 14.4775 0.92629V2.49672H8.66312V0.92629C8.66312 0.415233 8.24857 0 7.73835 0H6.29804C5.78782 0 5.37326 0.415233 5.37326 0.92629V2.49672H2.53516C1.13737 2.49672 0 3.63595 0 5.03604V20.6499C0 22.0446 1.13737 23.1839 2.53516 23.1839ZM26 21.1503C26 23.828 23.8316 26 21.1582 26C18.4849 26 16.3164 23.828 16.3164 21.1503C16.3164 18.4726 18.4849 16.3006 21.1582 16.3006C23.8316 16.3006 26 18.4726 26 21.1503ZM23.603 19.8939C23.603 19.7396 23.5446 19.5905 23.433 19.484C23.2044 19.2551 22.8377 19.2551 22.6092 19.484L20.5045 21.5921L19.6966 20.783C19.4681 20.5541 19.1014 20.5541 18.8729 20.783C18.7612 20.8948 18.7028 21.0385 18.7028 21.1929C18.7028 21.3473 18.7612 21.4963 18.8729 21.6028L20.0899 22.8219C20.3185 23.0508 20.6852 23.0508 20.9137 22.8219L23.4276 20.3038C23.5446 20.1974 23.603 20.0483 23.603 19.8939Z" fill="white"/>
</svg>
